<?xml version="1.0" standalone="no"?>

<!DOCTYPE svg PUBLIC "-//W3C//DTD SVG 20010904//EN"

 "http://www.w3.org/TR/2001/REC-SVG-20010904/DTD/svg10.dtd">

<svg version="1.0" xmlns="http://www.w3.org/2000/svg"

 width="1280.000000pt" height="960.000000pt" viewBox="0 0 1280.000000 960.000000"

 preserveAspectRatio="xMidYMid meet">

<path fill="#584c45" stroke="none" d="
M0 480

L0 0

L640 0

L1280 0

L1280 480

L1280 960

L640 960

L0 960

L0 480

Z

"/>

<path fill="#b5a094" stroke="none" d="
M0 480

L0 0

L640 0

L1280 0

L1280 480

L1280 960

L640 960

L0 960

L0 480

Z

M323 952

L323 951

L322 951

L321 951

L321 952

L321 953

L322 953

L323 953

L323 952

Z

M266 901

L266 900

L265 900

L264 900

L264 902

L264 903

L265 903

C266 902 266 901 266 901

Z

M612 863

C619 860 635 852 640 849

C641 848 648 845 656 841

C669 834 681 828 725 805

C731 802 736 800 736 799

C737 799 743 796 749 792

C756 789 762 787 764 787

L767 787

L767 785

C767 784 770 782 778 778

C784 774 790 771 792 770

C793 769 795 768 795 768

C796 768 809 762 818 756

C823 753 835 747 846 741

C856 736 867 730 870 729

C882 722 901 712 910 707

C915 705 924 700 930 697

C948 687 950 686 963 679

C970 675 980 670 986 666

C991 663 998 659 1001 658

C1007 655 1013 652 1015 650

C1016 650 1020 648 1024 646

C1033 640 1036 638 1044 634

C1048 632 1054 628 1059 626

C1063 624 1067 621 1068 620

C1069 617 1070 610 1072 589

C1074 566 1073 579 1081 453

C1083 432 1084 409 1085 401

C1086 393 1086 382 1087 376

C1087 370 1088 356 1089 344

C1090 317 1090 309 1089 305

C1086 301 1081 296 1067 288

C1055 280 1055 280 1055 273

C1054 265 1050 257 1045 253

C1043 252 1037 248 1033 244

C1028 241 1020 235 1015 232

C991 215 962 195 945 183

C943 182 939 180 937 178

C935 176 925 170 915 163

C905 157 896 150 894 149

C886 143 871 133 865 130

C861 128 854 123 850 120

C845 116 838 112 836 110

C834 109 829 106 826 104

C823 102 821 100 820 100

C820 100 818 99 818 98

C817 97 815 96 815 96

C814 96 811 94 807 92

C794 83 774 69 770 68

C750 55 748 54 741 52

C737 51 735 51 731 53

C726 54 709 61 705 64

C704 64 696 68 687 73

C650 91 631 102 615 110

C606 115 598 119 598 119

C597 119 594 121 590 123

C586 126 578 130 572 133

C558 140 536 152 531 155

C528 157 522 160 517 163

C511 166 505 169 503 170

C500 172 491 177 483 181

C474 186 466 191 465 191

C464 192 462 193 460 194

C457 195 452 198 448 200

C443 203 438 206 436 206

C434 207 431 209 428 211

C425 213 421 216 419 217

C415 219 402 226 387 234

C383 236 380 238 379 239

C377 240 371 243 362 248

C360 249 355 252 351 254

C348 256 345 258 344 258

C344 258 340 260 336 263

C332 265 324 270 319 273

C313 276 306 280 304 281

C302 283 297 285 293 287

C290 289 281 294 273 299

C249 313 238 326 233 348

C230 357 229 441 230 595

C231 657 231 657 235 660

C239 664 261 678 278 688

C285 692 294 697 297 700

C304 704 309 707 316 712

C318 713 325 717 331 721

C348 732 361 741 363 741

C364 742 394 760 406 768

C410 770 425 779 429 782

C430 782 435 785 440 788

C451 796 467 805 467 805

C468 805 487 816 497 823

C501 825 506 829 509 830

C511 831 515 834 519 836

C533 844 533 844 537 843

C541 841 541 841 544 843

C545 844 548 846 550 847

C552 848 554 850 556 851

C557 852 559 854 561 854

C563 855 567 857 570 859

C572 861 575 862 576 862

C581 865 587 866 595 866

C603 866 605 866 612 863

Z

M311 862

L311 861

L310 861

C308 861 307 863 307 864

L308 865

L310 864

L311 864

L311 862

Z

M168 855

L168 854

L167 854

C167 854 166 854 166 855

L165 856

L166 856

L168 856

L168 855

Z

M270 831

L270 829

L269 829

L268 829

L268 831

L268 832

L269 832

L270 832

L270 831

Z

M139 714

L139 713

L138 713

L137 713

L137 714

L137 715

L138 715

L139 715

L139 714

Z

M72 554

L72 553

L71 553

L70 553

L70 554

L70 555

L70 555

C71 555 71 555 72 554

Z

M117 477

C117 476 117 476 116 476

L115 475

L115 476

L115 477

L116 477

L117 477

L117 477

Z

M666 55

C667 53 665 49 663 48

L661 48

L661 51

C660 53 661 54 662 55

C664 56 665 57 665 57

L666 57

L666 55

Z

M587 859

C584 858 581 857 578 856

L574 855

L575 833

C575 812 576 745 576 739

C577 737 577 734 577 732

L577 728

L579 728

C580 728 581 728 582 729

C582 729 587 731 592 731

C602 733 608 733 613 730

L615 729

L615 730

C616 730 616 742 615 755

C615 768 614 788 614 800

C612 845 612 856 611 856

C609 858 592 860 587 859

Z

M584 748

L584 746

L582 746

L580 746

L580 748

L580 749

L582 749

L584 749

L584 748

Z

M618 842

C619 836 619 819 620 805

C621 731 621 727 622 726

C624 724 646 713 651 712

C653 712 657 711 660 710

C663 709 670 707 676 705

C681 704 690 701 697 700

C709 697 712 696 731 690

C738 688 746 686 749 685

C751 684 757 683 760 682

C764 681 767 680 768 680

L768 681

L769 680

C770 680 776 678 782 676

C788 673 795 671 797 670

C798 670 801 669 802 668

C805 667 815 662 818 660

C823 657 833 648 841 642

C844 640 849 635 853 633

C861 627 870 620 886 608

C903 594 909 589 916 585

C922 580 933 572 942 564

C946 561 951 557 953 555

C955 554 958 552 960 551

C961 549 966 546 971 543

C975 539 981 534 985 532

C992 525 1012 509 1022 502

C1024 500 1031 495 1036 490

C1052 477 1055 474 1061 471

L1066 468

L1067 469

C1067 470 1066 496 1064 507

C1064 509 1063 524 1062 539

C1059 578 1055 621 1055 622

C1051 624 1043 628 1040 630

C1029 635 1023 639 1019 641

C1017 643 1015 644 1015 644

C1014 644 1009 647 1003 650

C997 653 992 656 992 656

C992 656 984 660 975 665

C956 675 947 680 934 687

C929 690 924 693 924 693

C923 694 922 694 921 694

C921 694 917 696 913 699

C909 701 903 704 900 706

C893 709 871 721 861 726

C852 731 840 737 820 748

C811 753 802 757 801 758

C800 759 796 761 792 763

C783 768 759 780 753 783

C751 785 741 789 733 794

C724 799 713 804 709 806

C705 808 697 813 691 816

C685 819 676 824 670 827

C652 836 619 853 618 853

L618 853

L618 842

Z

M555 844

C543 837 543 837 543 790

C544 764 544 735 545 726

L545 710

L546 710

C547 710 549 711 551 713

C554 714 559 718 564 720

C573 725 573 720 571 768

C571 784 570 810 569 824

L569 851

L568 851

C568 851 562 848 555 844

Z

M531 836

C530 836 531 754 533 723

L533 709

L536 709

L539 709

L539 724

C539 732 539 750 538 765

C537 780 537 801 537 813

C537 825 537 835 536 836

L536 837

L534 837

C532 837 531 837 531 836

Z

M520 830

C516 827 508 823 503 820

C498 817 467 799 461 794

C457 792 453 790 452 789

C442 784 416 768 411 764

C409 762 407 761 407 761

C405 761 384 749 374 742

C370 739 367 737 366 737

C365 736 361 734 357 731

C353 729 347 725 343 722

C334 717 321 709 310 701

C304 697 298 693 295 692

C292 690 283 684 275 679

C267 674 259 669 257 668

C250 663 244 659 242 658

C239 656 239 656 238 591

L238 526

L239 526

C239 526 240 527 241 527

C243 530 257 539 272 547

C274 548 278 550 280 552

C283 554 285 556 286 556

C286 556 289 558 293 560

C299 564 299 564 299 626

C299 665 299 689 300 690

C301 692 302 694 304 694

C306 695 316 701 330 711

C348 722 361 731 364 732

C373 738 384 745 388 747

C404 757 412 763 414 764

C417 765 442 780 452 786

C457 790 476 801 490 808

C491 809 495 812 499 814

C503 817 506 819 507 819

C507 819 509 820 511 822

C513 823 515 824 515 824

L517 823

L517 797

C518 783 518 756 519 737

C519 718 520 702 520 702

L521 701

L525 704

C529 707 529 707 528 734

C528 749 528 765 527 770

C527 774 527 790 527 805

C526 820 526 833 526 833

L526 833

L525 833

C524 833 522 832 520 830

Z

M502 800

C500 798 495 795 493 794

C491 793 486 790 482 788

C465 776 458 772 457 772

C457 772 455 771 455 770

C454 769 452 768 451 768

C450 768 433 758 422 751

C409 742 404 739 392 732

C381 726 370 719 363 714

C361 712 356 709 353 707

C350 705 347 703 347 703

L347 702

L345 702

C344 702 339 699 334 696

C329 693 322 688 318 686

C315 684 312 682 311 681

C311 681 312 678 313 676

C318 663 332 621 334 612

C334 610 335 609 336 608

C336 608 340 610 344 613

C348 615 356 620 360 623

C365 625 374 631 380 635

C386 639 401 648 413 655

C425 662 441 672 449 677

C457 682 466 688 470 690

C475 693 480 696 493 705

C496 707 499 709 499 709

C500 709 503 711 506 712

C511 716 511 716 510 742

C510 756 510 769 510 772

C509 774 509 782 509 789

L509 803

L508 803

C508 803 505 802 502 800

Z

M382 737

C381 736 379 735 379 735

L378 734

L378 734

L379 733

L382 736

L385 738

L384 738

C384 738 383 737 382 737

Z

M589 727

C587 726 583 725 581 725

L577 723

L577 717

C577 713 578 691 578 668

C579 645 580 613 581 599

L581 572

L584 572

C585 573 589 574 593 574

C601 576 610 576 615 575

C617 574 620 573 621 573

L622 573

L622 577

C621 586 619 615 619 650

C618 664 618 684 617 694

C617 704 617 715 617 718

C617 721 616 723 615 724

C613 726 596 728 589 727

Z

M622 715

C622 711 622 697 623 683

C625 646 626 580 625 577

C624 571 626 570 644 561

C666 550 675 545 676 543

C677 543 678 542 678 542

C679 542 681 541 683 539

C686 538 694 533 703 529

C711 525 724 518 732 513

C739 509 752 503 760 499

C767 495 779 489 786 485

C792 481 798 478 799 478

C804 475 838 457 839 456

C841 455 862 444 867 442

C869 440 875 437 880 435

C884 432 888 430 889 430

C889 430 891 429 892 428

C894 426 902 422 909 419

C925 410 937 404 940 402

C942 400 954 394 982 380

C985 378 990 376 991 375

C995 372 1016 361 1027 355

C1032 353 1039 349 1043 346

C1051 342 1074 329 1075 329

L1076 329

L1076 334

C1076 339 1075 349 1072 392

C1071 399 1071 409 1071 414

C1070 418 1070 431 1069 442

C1068 462 1068 462 1065 464

C1052 471 1029 488 1003 510

C1000 512 995 516 991 519

C983 524 975 530 969 535

C956 546 955 547 933 563

C928 567 921 572 916 576

C902 587 888 598 883 601

C881 603 872 610 864 616

C855 623 846 631 842 633

C838 636 835 639 834 640

C832 641 829 643 826 645

C823 647 818 651 816 652

C804 661 800 663 790 666

C780 670 773 671 750 678

C738 681 729 684 724 685

C721 686 715 688 711 689

C707 690 698 693 692 695

C685 697 680 698 680 697

C679 697 679 691 680 683

C681 668 680 666 673 670

C670 671 670 672 670 677

L670 683

L668 682

C666 681 661 683 647 692

C643 695 639 697 638 697

L638 697

L638 694

L638 690

L636 690

C635 690 633 691 632 692

C629 695 629 696 628 706

C628 717 628 718 626 720

C625 720 623 721 622 721

L621 721

L622 715

Z

M569 717

C565 715 561 712 553 708

C549 706 546 704 546 704

C545 703 545 694 545 683

C546 672 546 647 547 628

C548 608 548 583 549 572

L549 552

L551 552

C552 553 556 555 560 558

C565 561 570 565 573 566

C577 569 577 569 576 580

C575 596 575 597 575 637

C574 656 574 675 573 677

C573 680 573 691 573 701

C573 711 573 719 572 719

L572 720

L569 717

Z

M638 710

L638 708

L640 709

L641 709

L641 710

L641 711

L640 711

L638 711

L638 710

Z

M653 705

C653 704 667 697 668 697

L669 697

L669 699

L669 701

L662 703

C659 704 655 705 654 706

L653 706

L653 705

Z

M533 703

C532 701 535 607 537 566

L537 554

L540 554

L543 554

L543 580

C542 594 542 618 541 633

C540 648 540 669 540 679

C540 688 540 698 539 701

L538 705

L536 705

L534 705

L533 703

Z

M503 701

C498 697 482 687 448 666

C437 659 421 649 413 644

C404 639 397 634 396 634

C395 634 381 624 358 611

C354 608 348 604 344 602

C340 600 337 597 336 596

C334 594 329 583 329 580

L329 579

L330 579

C330 579 335 582 340 585

C345 589 353 593 356 595

C360 598 368 602 373 605

C378 609 384 612 385 613

C387 614 390 616 392 618

C394 620 397 621 397 621

C398 621 401 623 405 625

C409 628 418 634 426 638

C434 643 445 650 450 653

C455 656 464 662 469 665

C474 668 483 673 488 676

C493 680 501 685 504 687

C511 691 512 693 512 699

C511 700 511 702 511 703

L511 704

L510 704

C509 704 506 702 503 701

Z

M639 703

L638 702

L639 702

L640 701

L640 702

L641 703

L640 703

L639 704

L639 703

Z

M522 697

C516 694 516 694 516 667

C517 641 517 641 508 635

C503 632 496 628 493 626

C490 624 482 619 476 615

C460 604 455 601 447 597

C444 595 438 592 435 590

C419 580 411 575 410 573

C408 572 406 571 405 570

C403 569 400 567 397 566

C395 564 393 563 392 563

C392 563 374 552 360 542

C353 538 342 531 333 526

C324 521 315 515 312 513

C307 509 305 508 303 510

C303 511 303 522 303 536

L303 560

L302 560

C302 560 298 558 294 555

C291 552 285 549 283 547

C281 546 277 544 275 542

C263 534 259 532 254 528

C250 526 246 524 244 523

C243 521 240 520 239 519

C238 518 238 516 238 443

C238 402 238 368 238 368

L239 368

L247 373

C252 376 260 381 265 384

C269 387 277 392 281 395

C285 398 294 403 300 407

C306 411 318 418 326 424

C334 429 343 435 346 437

C354 442 371 452 388 463

C396 469 407 475 411 477

C414 479 420 483 423 484

C444 499 464 512 468 514

C471 515 475 517 478 519

C489 527 513 542 520 546

C534 553 532 550 532 579

C532 592 532 604 532 604

C531 604 531 616 531 630

C529 684 529 700 528 700

C528 701 525 699 522 697

Z

M503 681

C499 679 497 677 497 676

L497 676

L500 675

C504 674 507 676 510 679

L512 681

L511 683

C510 684 510 685 509 685

C509 685 506 683 503 681

Z

M480 667

C476 665 474 663 474 662

L474 662

L478 661

C482 661 484 662 488 664

C490 666 492 668 492 669

L491 671

L488 671

C486 671 484 670 480 667

Z

M310 666

C309 666 309 645 309 619

L309 572

L312 572

C314 571 317 571 318 570

L321 570

L321 571

C320 572 321 575 322 578

C327 591 330 600 330 603

C330 607 322 633 314 658

L311 667

L311 667

C310 667 310 667 310 666

Z

M501 661

C496 658 490 655 488 654

C483 651 458 635 454 632

C452 631 451 630 451 630

C450 630 422 613 419 611

C414 607 400 598 393 595

C390 593 386 591 384 590

C383 588 379 586 376 585

C362 576 358 573 353 570

C349 566 342 563 335 559

C328 555 323 551 322 549

C320 544 314 528 313 525

L313 522

L314 523

C322 527 346 543 349 546

C351 546 352 547 352 547

C354 547 368 556 391 571

C397 575 406 581 413 584

C425 592 442 602 448 606

C451 609 477 624 493 634

C495 635 500 638 504 641

C512 646 512 646 512 656

L512 667

L511 667

C510 667 505 664 501 661

Z

M481 656

C478 654 475 652 475 651

L475 651

L480 654

C482 655 485 657 486 658

L488 660

L488 660

C488 660 485 658 481 656

Z

M459 654

C455 652 452 650 452 649

L452 648

L454 649

C455 649 457 649 458 648

C460 647 463 648 468 652

L471 654

L470 656

C468 659 465 658 459 654

Z

M468 647

L467 646

L469 647

C470 648 471 648 471 649

L471 649

L471 649

C471 649 470 648 468 647

Z

M438 641

L431 637

L433 634

L435 632

L437 633

C443 636 449 641 449 642

C449 644 447 646 446 646

C446 646 442 644 438 641

Z

M415 627

C411 625 408 622 408 622

L408 621

L410 622

C412 622 414 622 415 621

C416 620 418 621 423 624

C426 626 429 628 429 628

L429 628

L427 630

C426 631 424 632 424 632

C423 632 419 630 415 627

Z

M434 627

L432 626

L432 626

L432 625

L433 625

C433 625 434 626 436 626

L438 628

L437 628

C437 628 435 627 434 627

Z

M428 622

L427 621

L428 622

C429 623 430 623 430 624

L430 624

L430 624

C429 624 429 623 428 622

Z

M420 618

L415 615

L415 614

L416 614

L421 617

C424 619 426 620 426 621

L426 621

L425 621

C425 621 422 620 420 618

Z

M394 614

C390 611 387 609 387 609

L387 608

L391 608

C394 607 396 608 400 610

C402 612 405 614 405 614

L406 615

L405 616

C403 619 401 618 394 614

Z

M1060 617

C1059 617 1060 614 1060 612

C1061 608 1063 586 1065 553

C1066 544 1066 533 1067 528

C1068 522 1068 514 1068 510

C1068 497 1071 467 1072 465

C1073 465 1074 464 1075 464

L1076 464

L1076 469

C1075 472 1075 479 1074 486

C1074 492 1074 499 1073 501

C1073 506 1070 542 1069 556

C1068 581 1064 615 1063 617

C1062 618 1060 618 1060 617

Z

M371 600

L365 597

L365 596

L366 595

L370 594

C373 594 375 595 379 597

C381 598 383 599 384 600

L384 601

L383 603

C381 605 378 604 371 600

Z

M379 593

L378 591

L379 591

C379 591 380 592 381 593

L382 594

L382 594

C382 594 381 593 379 593

Z

M353 589

C352 587 349 586 347 585

L344 583

L348 582

C351 581 353 581 357 583

C360 585 362 587 362 588

L362 589

L359 590

C358 591 357 591 357 591

C357 591 355 590 353 589

Z

M374 589

L373 588

L374 588

C374 588 375 588 376 589

L376 590

L375 590

C375 590 374 590 374 589

Z

M367 585

L367 584

L368 585

C369 585 369 585 369 586

L369 586

L368 586

L367 586

L367 585

Z

M330 575

C326 572 326 570 329 569

C331 568 332 568 336 571

C339 572 341 574 341 574

L341 575

L338 576

C335 577 334 577 330 575

Z

M313 566

C313 562 322 561 325 564

L327 565

L326 566

L325 567

L323 566

C321 565 320 565 318 566

C316 566 314 567 314 567

L313 567

L313 566

Z

M587 562

C585 561 580 558 576 555

C572 553 566 549 563 547

C560 545 558 543 558 543

L558 542

L560 541

C561 541 565 539 569 536

C576 532 585 527 601 519

C619 509 623 507 626 505

C630 502 666 484 668 484

L668 484

L667 487

C667 488 667 490 668 491

C668 491 673 494 679 498

C684 501 691 505 695 507

C700 511 701 511 706 511

L712 510

L709 512

C708 513 698 518 688 524

C677 529 665 535 662 537

C658 539 655 541 654 541

C654 541 650 543 646 546

C642 548 633 553 625 557

C612 563 612 563 602 564

C593 564 591 564 587 562

Z

M309 548

C309 540 309 534 310 534

L311 533

L311 534

C311 535 313 539 315 544

C316 549 318 554 318 555

C318 557 312 562 310 562

L309 562

L309 548

Z

M538 550

L537 549

L537 545

C538 540 543 528 549 520

C553 513 564 501 566 501

C567 501 568 502 569 504

L570 506

L568 508

C558 515 547 531 545 542

C544 548 541 552 538 550

Z

M525 544

C520 540 496 525 492 522

C490 521 480 515 469 508

C458 500 445 493 442 490

C438 488 425 480 414 473

C402 465 389 457 385 455

C380 452 370 445 361 439

C352 434 340 426 334 422

C328 419 314 410 304 403

C294 397 279 388 272 383

C248 368 244 366 241 363

C238 360 238 360 239 352

C241 344 247 331 252 325

C258 317 265 311 267 311

C268 311 272 313 276 316

C280 318 284 321 285 322

C299 331 306 335 310 337

C312 339 321 344 328 349

C336 354 344 360 348 362

C351 364 365 373 378 381

C391 390 407 400 413 404

C419 407 433 416 443 423

C453 429 462 435 462 435

C463 435 485 448 500 458

C507 463 517 470 523 473

C529 477 540 483 547 488

C554 493 561 497 561 497

L563 498

L560 500

C548 509 538 525 534 543

L533 548

L532 548

C531 548 528 546 525 544

Z

M551 538

C552 533 559 522 565 516

C571 510 574 508 596 497

C599 495 604 493 606 492

C607 491 611 489 614 488

C617 486 625 482 631 478

C637 475 648 470 654 466

C669 458 674 456 687 449

C693 445 702 440 708 437

C727 427 736 422 739 420

C740 419 747 415 754 412

C766 406 781 398 788 394

C790 392 798 388 807 384

C816 379 827 373 833 370

C839 366 850 360 859 356

C875 347 887 341 895 336

C898 335 908 329 918 324

C939 313 940 313 946 309

C949 307 960 301 971 296

C982 290 992 285 993 284

C1000 279 1030 264 1034 264

C1040 262 1047 266 1048 272

L1049 275

L1033 283

C1012 293 993 304 982 310

C977 313 965 319 956 324

C947 328 935 335 929 338

C908 350 900 354 888 360

C881 364 871 369 865 373

C858 376 848 381 842 385

C836 388 822 395 812 401

C802 406 788 414 780 417

C773 421 763 426 758 429

C753 433 749 435 748 435

C748 435 746 436 744 437

C742 439 738 441 734 443

C726 448 718 452 714 454

C709 458 693 466 667 479

C655 486 640 493 636 495

C631 498 622 502 617 505

C612 508 605 512 602 514

C598 515 591 520 585 523

C579 526 570 531 564 535

C557 538 552 541 551 541

L550 541

L551 538

Z

M713 509

L714 508

L715 508

L715 509

L713 509

L712 510

L713 509

Z

M718 505

C718 505 719 505 720 504

C721 503 726 501 730 499

C733 497 740 494 743 492

C752 487 753 486 753 484

C753 482 751 480 735 470

C724 462 717 459 715 460

L714 461

L714 460

L713 459

L718 456

C721 455 725 453 726 452

C730 449 756 435 758 434

C759 434 761 433 762 432

C763 432 767 429 772 427

C777 425 782 422 784 421

C789 418 801 411 816 403

C822 400 833 394 841 390

C848 386 858 380 865 377

C871 374 881 368 889 365

C896 361 907 354 914 351

C920 348 934 340 945 334

C956 328 970 321 976 317

C982 314 991 309 996 307

C1006 300 1043 282 1044 282

C1046 282 1070 299 1074 303

C1079 307 1079 312 1074 316

C1073 318 1062 324 1050 330

C1038 336 1024 343 1018 347

C1011 350 1000 356 992 361

C984 365 975 370 972 372

C968 373 961 377 955 380

C933 392 923 397 916 401

C911 404 901 409 893 413

C884 418 874 423 869 426

C856 434 840 442 833 446

C829 447 823 450 820 452

C807 460 793 468 776 476

C773 477 766 481 760 485

C746 493 721 506 719 506

L718 506

L718 505

Z

M573 502

C570 499 571 498 577 495

C584 491 615 475 625 470

C643 460 647 458 654 455

C657 453 664 449 667 447

C671 445 674 443 675 443

C675 443 679 441 684 438

C689 435 696 431 700 429

C708 425 717 420 735 410

C743 406 750 402 750 402

C751 402 763 395 778 387

C792 379 810 370 816 367

C822 364 832 359 837 356

C841 353 851 348 859 344

C874 336 892 326 894 325

C894 325 903 320 914 315

C924 309 935 303 939 301

C953 293 964 287 972 283

C977 281 983 278 985 276

C987 275 994 271 1000 268

C1005 265 1012 261 1015 259

L1021 257

L1023 258

L1025 260

L1025 258

C1025 256 1026 255 1027 254

C1030 252 1038 253 1041 255

C1044 256 1048 262 1048 265

L1048 266

L1044 263

C1041 260 1040 260 1030 261

L1024 261

L1024 262

C1024 264 1022 265 1003 275

C994 279 983 285 980 287

C976 289 973 291 973 291

C972 291 967 294 961 297

C954 301 944 306 938 309

C932 312 925 317 921 319

C909 325 900 330 887 337

C879 341 870 346 866 348

C858 352 845 359 828 368

C821 372 811 377 805 380

C799 384 788 389 781 393

C773 397 764 402 761 404

C758 406 752 409 747 412

C742 414 731 421 721 426

C687 444 683 446 673 452

C666 455 660 458 658 459

C654 462 633 473 623 478

C619 480 613 483 611 484

C609 486 602 490 596 493

C589 496 583 500 582 500

C581 501 579 502 577 502

L574 504

L573 502

Z

M698 502

L695 499

L695 499

C695 499 698 498 700 496

C702 495 706 493 708 492

C711 490 711 490 716 492

L721 494

L720 495

C718 498 705 504 703 504

C702 504 699 503 698 502

Z

M748 496

L748 495

L750 495

L751 494

L750 495

C750 496 749 496 749 496

L748 496

L748 496

Z

M560 490

C556 488 551 484 547 482

C543 480 533 474 524 468

C515 462 503 454 497 450

C490 447 480 440 474 436

C468 432 461 427 458 425

C455 424 449 420 445 417

C441 415 436 411 434 411

C432 410 423 404 415 398

C398 387 392 384 383 378

C376 374 372 371 351 357

C341 351 330 344 326 342

C322 339 314 334 309 331

C296 322 279 312 275 310

C274 309 272 308 272 307

C272 307 275 305 278 304

C281 302 289 298 295 294

C301 290 309 286 311 285

C313 284 317 282 320 280

C324 277 332 273 349 264

C355 260 361 257 363 256

C364 255 365 254 365 254

C366 254 367 253 368 253

C369 252 373 250 377 247

C381 245 386 243 387 242

C388 241 390 240 391 240

C392 240 393 239 394 239

C395 238 397 236 399 235

C407 231 418 225 421 223

C423 221 429 218 434 216

C439 213 445 210 447 209

C448 208 452 206 456 204

C459 202 465 199 469 197

C473 194 481 190 485 188

C490 185 495 182 496 182

C497 181 499 179 501 178

C511 174 525 166 530 163

C532 161 538 158 542 156

C546 154 552 151 555 149

C558 148 565 144 570 141

C574 139 580 136 581 135

C583 134 588 131 592 129

C596 127 601 124 604 123

C606 121 612 118 617 116

C621 113 630 108 636 105

C642 102 647 99 648 99

C648 99 649 98 650 98

C651 97 652 96 654 96

C655 95 658 94 660 92

C662 90 666 88 670 87

C673 85 676 83 678 83

C683 79 719 62 722 60

C726 59 726 59 732 63

C735 64 738 66 739 67

C740 68 742 69 744 70

C745 71 750 73 753 76

C757 78 763 82 767 85

C771 87 780 93 787 98

C794 103 803 108 805 110

C808 112 819 119 829 125

C838 132 848 138 851 140

C853 141 858 145 861 147

C865 150 870 153 872 155

C873 156 878 159 882 161

C886 164 894 170 901 174

C907 178 914 183 917 185

C920 187 924 190 927 191

C929 192 934 196 938 198

C941 201 948 206 953 209

C958 212 965 218 970 221

C981 228 1005 245 1012 249

C1017 252 1018 254 1016 256

C1015 256 1006 261 997 266

C987 271 974 278 968 281

C963 284 951 291 942 295

C933 300 921 306 917 308

C912 311 899 318 888 324

C877 329 866 335 865 336

C862 338 832 354 825 356

C823 357 818 360 816 362

C811 365 796 373 779 382

C772 385 761 391 755 395

C748 399 738 404 734 407

C719 414 714 417 710 419

C703 423 694 428 683 434

C665 442 660 445 658 447

C655 449 647 453 627 463

C616 469 604 475 601 477

C593 483 568 495 567 495

C566 495 563 493 560 490

Z

M584 352

C591 349 602 344 610 340

C617 336 624 332 626 331

C631 329 649 319 676 304

C682 300 695 293 704 289

C713 284 725 278 731 274

C737 271 747 265 754 262

C775 251 784 246 787 243

C793 237 790 229 779 224

C776 222 773 220 772 219

C769 217 751 206 750 206

C750 206 748 205 746 203

C741 199 731 196 723 198

C720 198 716 200 714 200

C713 201 707 204 703 207

C698 209 687 215 679 219

C659 230 654 233 647 236

C644 238 636 243 630 246

C623 249 612 255 606 259

C599 263 586 270 577 275

C555 286 552 288 541 294

C528 302 514 309 512 309

C510 309 506 315 506 319

C506 323 509 326 517 331

C519 332 528 338 537 343

C556 356 557 356 565 357

C568 357 571 358 571 358

C572 358 578 355 584 352

Z

M683 492

C680 490 678 488 678 488

C678 487 684 483 692 479

C699 476 708 471 711 470

C716 467 719 467 720 470

L720 471

L715 474

C711 476 709 478 708 479

L708 481

L707 481

C707 481 705 480 704 479

C702 478 700 477 699 477

L698 477

L698 478

C698 479 699 480 700 481

C702 483 701 484 695 488

C692 490 689 492 688 493

L687 495

L683 492

Z

M722 491

L721 489

L722 488

C722 488 726 486 729 483

C736 479 736 479 739 481

C741 482 742 483 742 484

C742 485 725 494 723 494

L722 494

L722 491

Z

M753 493

C754 492 755 492 756 492

L757 492

L755 493

C754 494 753 494 753 494

L752 494

L753 493

Z

M1071 455

C1073 443 1077 381 1079 348

C1079 339 1079 331 1079 330

C1080 327 1082 324 1084 324

L1085 324

L1085 326

C1085 327 1085 328 1085 329

C1085 330 1084 338 1084 347

C1083 361 1082 379 1081 399

C1080 403 1080 413 1079 422

C1078 446 1076 455 1074 457

C1073 458 1072 459 1072 459

L1071 459

L1071 455

Z

M842 445

C843 445 844 444 845 444

L846 445

L843 446

L841 447

L842 445

Z

M853 440

L853 439

L855 439

L856 438

L855 439

C855 440 854 440 854 440

L853 440

L853 440

Z

M946 390

C948 389 949 388 949 388

L950 388

L950 388

C950 389 948 389 947 390

L945 391

L946 390

Z

M999 362

C999 361 1000 360 1002 360

L1005 358

L1005 358

C1005 359 1004 360 1002 361

L999 362

L999 362

Z

M1014 353

C1015 353 1018 351 1020 349

L1025 347

L1025 348

C1025 348 1022 350 1018 352

L1012 355

L1014 353

Z

M1039 340

L1040 339

L1041 339

L1041 340

L1039 340

L1038 341

L1039 340

Z

M1046 335

C1048 335 1049 334 1049 334

L1051 334

L1049 336

C1047 336 1046 337 1046 337

L1045 337

L1046 335

Z

M1052 333

C1052 332 1057 330 1062 327

C1068 324 1074 321 1076 319

C1079 317 1082 311 1081 308

L1080 307

L1081 307

C1082 307 1084 309 1084 312

C1084 314 1078 320 1073 323

C1071 324 1066 327 1062 329

C1057 331 1054 333 1053 333

L1052 333

L1052 333

Z

M1015 249

C998 236 989 229 970 216

C963 212 954 206 951 203

C939 195 921 183 915 179

C912 177 905 173 901 170

C884 157 881 155 874 151

C870 149 865 146 863 144

C860 142 852 137 846 133

C840 129 831 123 828 120

C810 109 801 103 796 100

C793 98 787 94 784 91

C780 89 775 85 773 84

C770 83 765 80 762 78

C758 75 752 72 749 70

C739 65 730 60 730 59

C730 57 736 55 740 55

C742 55 745 56 747 57

C749 58 752 60 754 60

C755 61 759 63 761 65

C763 67 769 71 773 73

C776 75 782 79 785 81

C794 86 815 101 826 108

C831 112 837 116 839 117

C843 119 853 126 863 133

C870 137 898 157 936 182

C961 199 969 204 971 206

C973 208 977 210 998 225

C1025 243 1031 247 1031 249

L1031 250

L1026 251

C1020 253 1020 253 1015 249

Z

M569 349

C566 348 564 347 546 336

C524 323 520 320 521 318

C522 317 530 312 540 307

C550 302 561 297 563 295

C565 294 569 292 570 291

C572 290 577 287 583 284

C589 281 594 278 595 277

C596 277 599 276 600 275

C602 274 605 272 607 272

C609 271 613 268 616 266

C620 264 625 261 629 259

C633 257 640 253 646 250

C651 247 656 244 657 244

C657 244 658 243 660 242

C661 241 666 238 671 236

C675 234 682 230 684 229

C687 227 696 222 705 218

C719 211 721 210 724 211

C729 211 749 223 762 232

C764 234 767 236 768 236

C768 236 770 237 772 239

L775 242

L774 244

C773 246 771 247 771 247

C770 247 765 250 759 253

C753 256 740 264 729 269

C718 275 709 280 709 280

C708 281 698 286 678 296

C675 298 672 299 671 300

C670 300 667 302 665 303

C662 304 658 307 656 308

C651 311 644 315 624 326

C605 335 600 338 594 341

C584 348 575 350 569 349

Z

M548 346

C545 344 538 340 534 337

C529 334 523 330 522 329

L519 326

L521 326

C522 326 526 328 531 331

C535 334 542 339 547 342

C552 345 556 348 557 348

L557 349

L555 349

C554 349 550 347 548 346

Z

M512 321

L510 319

L511 317

C512 315 514 315 515 315

L517 315

L518 319

L518 324

L516 324

C515 324 513 323 512 321

Z

M521 310

C522 310 546 296 546 296

C547 296 572 282 573 281

C574 281 579 278 584 275

C604 265 612 260 633 249

C639 245 649 240 656 237

C662 233 672 227 679 224

C692 216 711 206 712 206

L713 206

L713 207

C713 208 671 231 669 231

L668 231

L668 232

L668 233

L666 233

C665 234 662 236 658 238

C652 242 644 246 621 258

C612 263 598 270 591 274

C583 279 572 284 568 287

C563 289 554 294 548 297

C530 308 523 311 522 311

L521 311

L521 310

Z

M778 240

L777 237

L779 235

C780 234 782 233 783 233

L785 233

L785 236

C785 240 782 243 780 243

L779 243

L778 240

Z

M767 230

C763 228 759 225 758 224

C757 223 753 221 750 219

C739 213 737 212 737 210

C737 209 741 205 742 205

C743 205 759 215 766 220

C767 220 770 223 773 225

C778 229 779 230 776 232

C774 235 773 234 767 230

Z

M728 207

C727 206 724 206 722 206

L718 207

L718 205

L718 203

L721 202

C725 201 732 201 735 202

L738 203

L738 204

C738 205 733 208 731 208

C731 208 729 207 728 207

Z

"/>

</svg>

